<?xml version="1.0"?>
<VTKFile type="UnstructuredGrid" version="0.1" byte_order="LittleEndian">
  <UnstructuredGrid>
    <Piece NumberOfPoints="27" NumberOfCells="8">
      <Points>
        <DataArray type="Float64" NumberOfComponents="3" format="ascii">
0.0 0.0 0.0
0.5 0.0 0.0
1.0 0.0 0.0
0.0 0.5 0.0
0.5 0.5 0.0
1.0 0.5 0.0
0.0 1.0 0.0
0.5 1.0 0.0
1.0 1.0 0.0
0.0 0.0 0.5
0.5 0.0 0.5
1.0 0.0 0.5
0.0 0.5 0.5
0.5 0.5 0.5
1.0 0.5 0.5
0.0 1.0 0.5
0.5 1.0 0.5
1.0 1.0 0.5
0.0 0.0 1.0
0.5 0.0 1.0
1.0 0.0 1.0
0.0 0.5 1.0
0.5 0.5 1.0
1.0 0.5 1.0
0.0 1.0 1.0
0.5 1.0 1.0
1.0 1.0 1.0
        </DataArray>
      </Points>
      <Cells>
        <DataArray type="Int32" Name="connectivity" format="ascii">
0 1 4 3 9 10 13 12 1 2 5 4 10 11 14 13 3 4 7 6 12 13 16 15 4 5 8 7 13 14 17 16 9 10 13 12 18 19 22 21 10 11 14 13 19 20 23 22 12 13 16 15 21 22 25 24 13 14 17 16 22 23 26 25
        </DataArray>
        <DataArray type="Int32" Name="offsets" format="ascii">
8 16 24 32 40 48 56 64
        </DataArray>
        <DataArray type="UInt8" Name="types" format="ascii">
12 12 12 12 12 12 12 12
        </DataArray>
      </Cells>
      <CellData Scalars="scalars">
        <DataArray type="Float64" Name="RandomField" format="ascii">
0.23282882487387957 0.6265765328525102 0.5763741953141072 0.6193160687558038 0.3511770741764776 0.6878647849758002 0.5764074309119609 0.533339389226142
        </DataArray>
      </CellData>
      <PointData Scalars="scalars">
        <DataArray type="Float64" Name="PointField" format="ascii">
0.08854082576564248
0.5807234426173047
0.36738941101416245
0.6039551613540933
0.35249593780228583
0.21440741990850742
0.2550382614832537
0.9845973091399307
0.2987512879051101
0.8630903837322467
0.9901161649355693
0.7412178871978929
0.26275386370759934
0.8575118249289054
0.22729773559725253
0.2584133245205934
0.651301112291874
0.8201691127813141
0.40677084720338696
0.7709563931592803
0.3471918193278831
0.9927233248874281
0.25118313851870666
0.5113294613694481
0.7118827695679734
0.634826223912294
0.46052588112070003
        </DataArray>
      </PointData>
    </Piece>
  </UnstructuredGrid>
</VTKFile>
